<svg version="1" xmlns="http://www.w3.org/2000/svg" width="682.667" height="682.667" viewBox="0 0 512.000000 512.000000"><path d="M239.9 22.4c-.2.2-3.6.6-7.4 1-3.9.4-8.1.8-9.5 1.1-17.2 2.9-26.4 5-39.5 9.2-12.5 4-41.1 16.7-43.5 19.3-.3.3-2.1 1.4-4 2.4s-6.9 4.1-11 6.9c-32.1 21.5-58.4 50.3-77.3 84.8-10.6 19.3-21.7 50.3-24.2 67.5-.4 2.1-.8 4.6-1 5.4-.2.8-.7 3.7-1 6.5-.4 2.7-.9 6.1-1.2 7.5-.3 1.4-.6 11.7-.8 23-.5 38.8 6.6 72.2 22.6 105.6 6.6 13.9 17.2 31.5 24.9 41.5l2 2.7-3.1 1.2c-4.7 2-15.1 12.9-18.3 19.3-7.8 15.5-6.9 34.6 2.2 49.2 6.7 10.7 20.1 19.5 33.2 21.7 20.1 3.5 42.6-7.8 51.3-25.6 1.6-3.1 3.1-5.6 3.5-5.4.4.2 6.8 3.3 14.2 7 7.4 3.6 17.9 8.2 23.4 10.3 10.6 3.9 33 9.9 41 11 2.7.3 5.2.8 5.5 1 3 1.8 47 2.7 61.1 1.2 27.8-2.9 59-12.2 82.9-24.8 5.1-2.7 9.7-4.6 10.2-4.4.4.3 1.8 2.7 3.1 5.2 1.3 2.6 5 7.5 8.3 10.8 18.8 18.8 48.7 19.3 67.7 1.2 11.2-10.6 15.9-22.2 15.3-37.7-.3-10.5-2.3-16.9-7.6-24.9-2.8-4.1-12.5-14.1-13.9-14.1-.3 0-1.1-.4-1.9-.9-1.1-.7-.4-2.3 3.6-7.8 11.8-16.4 23.7-38.6 30.7-57.5 4-10.7 10.3-34.6 11.2-42.3.4-2.8.8-5.2 1-5.6 1.7-3 2.6-44.6 1.2-58.4-3.2-30.6-11.9-59.7-26-86.5-29-55.1-79-97.4-137.8-116.4-4.7-1.6-9.2-2.9-10-3.1-.8-.2-4.2-1-7.5-1.8s-7.8-1.8-10-2.3c-2.2-.4-4.7-.9-5.5-1-.8-.2-3.7-.6-6.4-.9-2.7-.4-5.8-.9-7-1.2-2.3-.5-44.2-1.4-44.7-.9z"/></svg>